<svg width="120" height="100" viewBox="0 0 120 100" fill="none" xmlns="http://www.w3.org/2000/svg">
<g id="Frame 1" clip-path="url(#clip0)">
<g id="darkGroup">
<path id="dark1" opacity="0.7" d="M57 49.268C58.3333 50.0378 58.3333 51.9623 57 52.7321L22.5 72.6506C21.1667 73.4204 19.5 72.4582 19.5 70.9186L19.5 31.0814C19.5 29.5418 21.1667 28.5796 22.5 29.3494L57 49.268Z" fill="#7F00BB"/>
<path id="dark2" opacity="0.7" d="M44 49.268C45.3333 50.0378 45.3333 51.9623 44 52.7321L9.5 72.6506C8.16666 73.4204 6.5 72.4582 6.5 70.9186L6.5 31.0814C6.5 29.5418 8.16667 28.5796 9.5 29.3494L44 49.268Z" fill="#7F00BB"/>
</g>
<g id="lightGroup">
<path id="light1" opacity="0.7" d="M44 49.268C45.3333 50.0378 45.3333 51.9623 44 52.7321L9.5 72.6506C8.16666 73.4204 6.5 72.4582 6.5 70.9186L6.5 31.0814C6.5 29.5418 8.16667 28.5796 9.5 29.3494L44 49.268Z" fill="#C175E4"/>
</g>
</g>
<defs>
<clipPath id="clip0">
<rect width="120" height="100" fill="white"/>
</clipPath>
</defs>
</svg>
